<mxfile host="65bd71144e">
    <diagram id="W2GCAyt02r_Wo8HEGg_i" name="Page-1">
        <mxGraphModel dx="941" dy="703" grid="1" gridSize="10" guides="1" tooltips="1" connect="1" arrows="1" fold="1" page="1" pageScale="1" pageWidth="2339" pageHeight="3300" math="1" shadow="0">
            <root>
                <mxCell id="0"/>
                <mxCell id="1" parent="0"/>
                <mxCell id="32" value="" style="endArrow=none;html=1;exitDx=0;exitDy=0;flowAnimation=0;entryX=0;entryY=0.5;entryDx=0;entryDy=0;entryPerimeter=0;exitX=1;exitY=0.5;" edge="1" parent="1" source="127" target="90">
                    <mxGeometry width="50" height="50" relative="1" as="geometry">
                        <mxPoint x="732.34" y="250.37" as="sourcePoint"/>
                        <mxPoint x="870" y="250.08000000000004" as="targetPoint"/>
                        <Array as="points"/>
                    </mxGeometry>
                </mxCell>
                <mxCell id="44" value="" style="endArrow=none;html=1;entryX=0.279;entryY=0.893;entryDx=0;entryDy=0;entryPerimeter=0;exitX=0.621;exitY=0.321;exitDx=0;exitDy=0;exitPerimeter=0;" edge="1" parent="1" source="40" target="41">
                    <mxGeometry width="50" height="50" relative="1" as="geometry">
                        <mxPoint x="610" y="300" as="sourcePoint"/>
                        <mxPoint x="650" y="340" as="targetPoint"/>
                    </mxGeometry>
                </mxCell>
                <mxCell id="47" value="" style="endArrow=none;html=1;entryX=0;entryY=1;entryDx=0;entryDy=0;entryPerimeter=0;exitX=1;exitY=0.5;exitDx=0;exitDy=0;exitPerimeter=0;" edge="1" parent="1">
                    <mxGeometry width="50" height="50" relative="1" as="geometry">
                        <mxPoint x="950" y="240.08" as="sourcePoint"/>
                        <mxPoint x="950" y="240.08" as="targetPoint"/>
                    </mxGeometry>
                </mxCell>
                <mxCell id="52" value="" style="shape=waypoint;sketch=0;fillStyle=solid;size=6;pointerEvents=1;points=[];fillColor=none;resizable=0;rotatable=0;perimeter=centerPerimeter;snapToPoint=1;" vertex="1" parent="1">
                    <mxGeometry x="591" y="430" width="20" height="20" as="geometry"/>
                </mxCell>
                <mxCell id="53" value="" style="endArrow=none;html=1;entryX=0.84;entryY=0.962;entryDx=0;entryDy=0;entryPerimeter=0;" edge="1" parent="1" source="52" target="51">
                    <mxGeometry width="50" height="50" relative="1" as="geometry">
                        <mxPoint x="690" y="460" as="sourcePoint"/>
                        <mxPoint x="670" y="440" as="targetPoint"/>
                    </mxGeometry>
                </mxCell>
                <mxCell id="54" value="" style="endArrow=none;html=1;exitX=0.427;exitY=0.859;exitDx=0;exitDy=0;exitPerimeter=0;entryX=1;entryY=0.5;entryDx=0;entryDy=0;" edge="1" parent="1" source="52" target="111">
                    <mxGeometry width="50" height="50" relative="1" as="geometry">
                        <mxPoint x="625.4300000000001" y="451.17" as="sourcePoint"/>
                        <mxPoint x="210" y="445" as="targetPoint"/>
                        <Array as="points"/>
                    </mxGeometry>
                </mxCell>
                <mxCell id="61" value="" style="endArrow=none;html=1;entryX=0.674;entryY=0.629;entryDx=0;entryDy=0;entryPerimeter=0;exitDx=0;exitDy=0;exitX=0;exitY=0.5;" edge="1" parent="1" source="129" target="52">
                    <mxGeometry width="50" height="50" relative="1" as="geometry">
                        <mxPoint x="720" y="440" as="sourcePoint"/>
                        <mxPoint x="620" y="439.76" as="targetPoint"/>
                    </mxGeometry>
                </mxCell>
                <mxCell id="84" value="" style="endArrow=block;html=1;entryX=0;entryY=0.5;entryDx=0;entryDy=0;entryPerimeter=0;endFill=1;flowAnimation=0;fillColor=#e51400;strokeColor=#B20000;shadow=0;exitX=1.109;exitY=0.53;exitDx=0;exitDy=0;exitPerimeter=0;strokeWidth=1.9685;startSize=5.9055;endSize=5.9055;rounded=0;align=center;verticalAlign=bottom;fontFamily=Helvetica;fontSize=11;fontColor=default;labelBackgroundColor=default;jumpStyle=sharp;startArrow=none;startFill=0;" edge="1" parent="1">
                    <mxGeometry width="50" height="50" relative="1" as="geometry">
                        <mxPoint x="230" y="219.99612903225756" as="sourcePoint"/>
                        <mxPoint x="308.73999999999995" y="220.2961290322575" as="targetPoint"/>
                    </mxGeometry>
                </mxCell>
                <mxCell id="107" value="$$\underline{I&#39;}_{P}$$" style="edgeLabel;html=1;align=center;verticalAlign=middle;resizable=0;points=[];fontFamily=Helvetica;fontSize=11;fontColor=default;labelBackgroundColor=default;rounded=0;sketch=1;jiggle=2;curveFitting=1;strokeColor=#001DBC;strokeWidth=1.9685;fillColor=#0050ef;" vertex="1" connectable="0" parent="84">
                    <mxGeometry relative="1" as="geometry">
                        <mxPoint as="offset"/>
                    </mxGeometry>
                </mxCell>
                <mxCell id="22" value="$$L_M$$" style="pointerEvents=1;verticalLabelPosition=middle;shadow=0;dashed=0;align=left;html=1;verticalAlign=middle;shape=mxgraph.electrical.inductors.inductor_3;direction=south;labelPosition=right;horizontal=1;fontSize=12;container=0;" vertex="1" parent="1">
                    <mxGeometry x="640" y="290" width="8" height="100" as="geometry"/>
                </mxCell>
                <mxCell id="29" value="" style="endArrow=none;html=1;exitDx=0;exitDy=0;exitPerimeter=0;entryX=0;entryY=1;entryDx=0;entryDy=0;entryPerimeter=0;rounded=0;curved=0;" edge="1" parent="1" source="40" target="22">
                    <mxGeometry width="50" height="50" relative="1" as="geometry">
                        <mxPoint x="561" y="280" as="sourcePoint"/>
                        <mxPoint x="641" y="280" as="targetPoint"/>
                        <Array as="points">
                            <mxPoint x="640" y="280"/>
                        </Array>
                    </mxGeometry>
                </mxCell>
                <mxCell id="56" value="" style="endArrow=none;html=1;entryDx=0;entryDy=0;entryPerimeter=0;exitX=0;exitY=0.5;exitDx=0;exitDy=0;exitPerimeter=0;rounded=0;curved=0;" edge="1" parent="1" source="73" target="40">
                    <mxGeometry width="50" height="50" relative="1" as="geometry">
                        <mxPoint x="561" y="280" as="sourcePoint"/>
                        <mxPoint x="641" y="280" as="targetPoint"/>
                        <Array as="points">
                            <mxPoint x="560" y="280"/>
                        </Array>
                    </mxGeometry>
                </mxCell>
                <mxCell id="40" value="" style="shape=waypoint;sketch=0;fillStyle=solid;size=6;pointerEvents=1;points=[];fillColor=none;resizable=0;rotatable=0;perimeter=centerPerimeter;snapToPoint=1;container=0;" vertex="1" parent="1">
                    <mxGeometry x="591" y="270" width="20" height="20" as="geometry"/>
                </mxCell>
                <mxCell id="51" value="" style="shape=waypoint;sketch=0;fillStyle=solid;size=6;pointerEvents=1;points=[];fillColor=none;resizable=0;rotatable=0;perimeter=centerPerimeter;snapToPoint=1;container=0;" vertex="1" parent="1">
                    <mxGeometry x="591" y="390" width="20" height="20" as="geometry"/>
                </mxCell>
                <mxCell id="73" value="&lt;span style=&quot;color: rgb(0, 0, 0);&quot;&gt;$$R_{FE}$$&lt;/span&gt;" style="pointerEvents=1;verticalLabelPosition=middle;shadow=0;dashed=0;align=left;html=1;verticalAlign=middle;shape=mxgraph.electrical.resistors.resistor_1;rotation=0;horizontal=1;labelPosition=right;fontSize=12;direction=south;container=0;" vertex="1" parent="1">
                    <mxGeometry x="550" y="290" width="20" height="100" as="geometry"/>
                </mxCell>
                <mxCell id="80" value="" style="endArrow=none;html=1;exitX=0.129;exitY=0.47;exitDx=0;exitDy=0;exitPerimeter=0;entryX=1;entryY=1;entryDx=0;entryDy=0;entryPerimeter=0;rounded=0;curved=0;" edge="1" parent="1" source="51" target="22">
                    <mxGeometry width="50" height="50" relative="1" as="geometry">
                        <mxPoint x="471" y="430" as="sourcePoint"/>
                        <mxPoint x="641" y="400" as="targetPoint"/>
                        <Array as="points">
                            <mxPoint x="640" y="400"/>
                        </Array>
                    </mxGeometry>
                </mxCell>
                <mxCell id="83" value="" style="endArrow=none;html=1;entryX=1;entryY=0.5;entryDx=0;entryDy=0;entryPerimeter=0;rounded=0;curved=0;exitX=0.334;exitY=0.47;exitDx=0;exitDy=0;exitPerimeter=0;" edge="1" parent="1" source="51" target="73">
                    <mxGeometry width="50" height="50" relative="1" as="geometry">
                        <mxPoint x="580" y="400" as="sourcePoint"/>
                        <mxPoint x="501" y="390" as="targetPoint"/>
                        <Array as="points">
                            <mxPoint x="560" y="400"/>
                        </Array>
                    </mxGeometry>
                </mxCell>
                <mxCell id="86" value="" style="endArrow=none;html=1;exitDx=0;exitDy=0;exitPerimeter=0;exitX=1;exitY=1;entryDx=0;entryDy=0;entryPerimeter=0;flowAnimation=0;" edge="1" parent="1" source="5" target="41">
                    <mxGeometry width="50" height="50" relative="1" as="geometry">
                        <mxPoint x="530" y="240" as="sourcePoint"/>
                        <mxPoint x="680" y="240" as="targetPoint"/>
                        <Array as="points"/>
                    </mxGeometry>
                </mxCell>
                <mxCell id="41" value="" style="shape=waypoint;sketch=0;fillStyle=solid;size=6;pointerEvents=1;points=[];fillColor=none;resizable=0;rotatable=0;perimeter=centerPerimeter;snapToPoint=1;" vertex="1" parent="1">
                    <mxGeometry x="591" y="230" width="20" height="20" as="geometry"/>
                </mxCell>
                <mxCell id="88" value="" style="group" vertex="1" connectable="0" parent="1">
                    <mxGeometry x="330" y="230" width="200" height="20" as="geometry"/>
                </mxCell>
                <mxCell id="2" value="&lt;span style=&quot;color: rgb(0, 0, 0); text-align: left;&quot;&gt;$$R&#39;_{P}$$&lt;/span&gt;" style="pointerEvents=1;verticalLabelPosition=top;shadow=0;dashed=0;align=center;html=1;verticalAlign=bottom;shape=mxgraph.electrical.resistors.resistor_1;labelPosition=center;horizontal=1;" vertex="1" parent="88">
                    <mxGeometry width="100" height="20" as="geometry"/>
                </mxCell>
                <mxCell id="5" value="&lt;span style=&quot;color: rgb(0, 0, 0); text-align: left;&quot;&gt;$$L&#39;_{P}$$&lt;/span&gt;" style="pointerEvents=1;verticalLabelPosition=top;shadow=0;dashed=0;align=center;html=1;verticalAlign=bottom;shape=mxgraph.electrical.inductors.inductor_3;horizontal=1;labelPosition=center;" vertex="1" parent="88">
                    <mxGeometry x="100" width="100" height="10" as="geometry"/>
                </mxCell>
                <mxCell id="31" value="" style="endArrow=none;html=1;entryX=0;entryY=1;entryDx=0;entryDy=0;entryPerimeter=0;exitX=1;exitY=0.5;exitDx=0;exitDy=0;exitPerimeter=0;" edge="1" parent="88" source="2" target="5">
                    <mxGeometry width="50" height="50" relative="1" as="geometry">
                        <mxPoint x="90" y="-30" as="sourcePoint"/>
                        <mxPoint x="170" y="-30" as="targetPoint"/>
                    </mxGeometry>
                </mxCell>
                <mxCell id="89" value="" style="group" vertex="1" connectable="0" parent="1">
                    <mxGeometry x="870" y="230.08" width="200" height="20" as="geometry"/>
                </mxCell>
                <mxCell id="90" value="&lt;span style=&quot;color: rgb(0, 0, 0); text-align: left;&quot;&gt;$$R_{S}$$&lt;/span&gt;" style="pointerEvents=1;verticalLabelPosition=top;shadow=0;dashed=0;align=center;html=1;verticalAlign=bottom;shape=mxgraph.electrical.resistors.resistor_1;labelPosition=center;horizontal=1;" vertex="1" parent="89">
                    <mxGeometry width="100" height="20" as="geometry"/>
                </mxCell>
                <mxCell id="91" value="&lt;span style=&quot;color: rgb(0, 0, 0); text-align: left;&quot;&gt;$$L_{S}$$&lt;/span&gt;" style="pointerEvents=1;verticalLabelPosition=top;shadow=0;dashed=0;align=center;html=1;verticalAlign=bottom;shape=mxgraph.electrical.inductors.inductor_3;horizontal=1;labelPosition=center;" vertex="1" parent="89">
                    <mxGeometry x="100" width="100" height="10" as="geometry"/>
                </mxCell>
                <mxCell id="92" value="" style="endArrow=none;html=1;entryX=0;entryY=1;entryDx=0;entryDy=0;entryPerimeter=0;exitX=1;exitY=0.5;exitDx=0;exitDy=0;exitPerimeter=0;" edge="1" parent="89" source="90" target="91">
                    <mxGeometry width="50" height="50" relative="1" as="geometry">
                        <mxPoint x="90" y="-30" as="sourcePoint"/>
                        <mxPoint x="170" y="-30" as="targetPoint"/>
                    </mxGeometry>
                </mxCell>
                <mxCell id="93" value="" style="endArrow=none;html=1;exitDx=0;exitDy=0;exitPerimeter=0;flowAnimation=0;exitX=1;exitY=1;entryX=0;entryY=0.5;entryDx=0;entryDy=0;" edge="1" parent="1" source="91" target="124">
                    <mxGeometry width="50" height="50" relative="1" as="geometry">
                        <mxPoint x="971" y="150.08" as="sourcePoint"/>
                        <mxPoint x="1100" y="240.08" as="targetPoint"/>
                        <Array as="points"/>
                    </mxGeometry>
                </mxCell>
                <mxCell id="95" value="" style="endArrow=none;html=1;exitDx=0;exitDy=0;exitPerimeter=0;flowAnimation=0;entryDx=0;entryDy=0;exitX=0.729;exitY=0.559;entryX=0;entryY=0.5;" edge="1" parent="1" source="41" target="127">
                    <mxGeometry width="50" height="50" relative="1" as="geometry">
                        <mxPoint x="601" y="240" as="sourcePoint"/>
                        <mxPoint x="720" y="240" as="targetPoint"/>
                        <Array as="points"/>
                    </mxGeometry>
                </mxCell>
                <mxCell id="97" value="" style="endArrow=none;html=1;entryDx=0;entryDy=0;rounded=0;curved=0;entryX=1;entryY=0.5;exitX=0;exitY=0.5;exitDx=0;exitDy=0;" edge="1" parent="1" source="133" target="129">
                    <mxGeometry width="50" height="50" relative="1" as="geometry">
                        <mxPoint x="1040" y="439.78" as="sourcePoint"/>
                        <mxPoint x="760" y="439.78" as="targetPoint"/>
                    </mxGeometry>
                </mxCell>
                <mxCell id="98" value="" style="endArrow=none;startArrow=block;html=1;rounded=0;strokeColor=#001DBC;align=center;verticalAlign=bottom;fontFamily=Helvetica;fontSize=11;fontColor=default;labelBackgroundColor=default;curved=0;entryX=0.594;entryY=0.889;entryDx=0;entryDy=0;entryPerimeter=0;exitX=0.678;exitY=0.333;exitDx=0;exitDy=0;exitPerimeter=0;endFill=0;startFill=1;strokeWidth=1.9685;fillColor=#0050ef;jumpStyle=sharp;" edge="1" parent="1">
                    <mxGeometry width="50" height="50" relative="1" as="geometry">
                        <mxPoint x="724.74" y="429.9604" as="sourcePoint"/>
                        <mxPoint x="724.74" y="250.03949999999998" as="targetPoint"/>
                    </mxGeometry>
                </mxCell>
                <mxCell id="102" value="$$\underline{U}_{0}$$" style="edgeLabel;html=1;align=center;verticalAlign=bottom;resizable=0;points=[];fontFamily=Helvetica;fontSize=11;fontColor=default;labelBackgroundColor=default;rounded=0;sketch=1;jiggle=2;curveFitting=1;strokeColor=#001DBC;strokeWidth=1.9685;fillColor=#0050ef;" vertex="1" connectable="0" parent="98">
                    <mxGeometry relative="1" as="geometry">
                        <mxPoint as="offset"/>
                    </mxGeometry>
                </mxCell>
                <mxCell id="99" value="" style="endArrow=none;startArrow=block;html=1;rounded=0;strokeColor=#001DBC;align=right;verticalAlign=middle;exitX=0.678;exitY=0.333;exitDx=0;exitDy=0;exitPerimeter=0;endFill=0;startFill=1;strokeWidth=1.9685;fillColor=#0050ef;labelPosition=left;verticalLabelPosition=middle;jumpStyle=sharp;startSize=5.9055;" edge="1" parent="1">
                    <mxGeometry width="50" height="50" relative="1" as="geometry">
                        <mxPoint x="200.22454545454545" y="429.9204" as="sourcePoint"/>
                        <mxPoint x="200.22454545454545" y="249.99949999999998" as="targetPoint"/>
                    </mxGeometry>
                </mxCell>
                <mxCell id="101" value="$$\underline{U}&#39;_{P}$$" style="edgeLabel;html=1;align=left;verticalAlign=bottom;resizable=0;points=[];labelPosition=right;verticalLabelPosition=top;horizontal=1;textDirection=ltr;" vertex="1" connectable="0" parent="99">
                    <mxGeometry relative="1" as="geometry">
                        <mxPoint x="-30" y="10" as="offset"/>
                    </mxGeometry>
                </mxCell>
                <mxCell id="100" value="" style="endArrow=none;startArrow=block;html=1;rounded=0;strokeColor=#001DBC;align=center;verticalAlign=bottom;fontFamily=Helvetica;fontSize=11;fontColor=default;labelBackgroundColor=default;curved=0;entryX=0.594;entryY=0.889;entryDx=0;entryDy=0;entryPerimeter=0;exitX=0.678;exitY=0.333;exitDx=0;exitDy=0;exitPerimeter=0;endFill=0;startFill=1;strokeWidth=1.9685;fillColor=#0050ef;jumpStyle=sharp;" edge="1" parent="1">
                    <mxGeometry width="50" height="50" relative="1" as="geometry">
                        <mxPoint x="1114.87" y="429.96039999999994" as="sourcePoint"/>
                        <mxPoint x="1114.87" y="250.0395" as="targetPoint"/>
                    </mxGeometry>
                </mxCell>
                <mxCell id="106" value="$$\underline{U}_{S}$$" style="edgeLabel;html=1;align=center;verticalAlign=bottom;resizable=0;points=[];fontFamily=Helvetica;fontSize=11;fontColor=default;labelBackgroundColor=default;rounded=0;sketch=1;jiggle=2;curveFitting=1;strokeColor=#001DBC;strokeWidth=1.9685;fillColor=#0050ef;" vertex="1" connectable="0" parent="100">
                    <mxGeometry relative="1" as="geometry">
                        <mxPoint as="offset"/>
                    </mxGeometry>
                </mxCell>
                <mxCell id="110" value="" style="ellipse;whiteSpace=wrap;html=1;aspect=fixed;fontFamily=Helvetica;fontSize=11;fontColor=default;labelBackgroundColor=default;" vertex="1" parent="1">
                    <mxGeometry x="195" y="235" width="10" height="10" as="geometry"/>
                </mxCell>
                <mxCell id="111" value="" style="ellipse;whiteSpace=wrap;html=1;aspect=fixed;fontFamily=Helvetica;fontSize=11;fontColor=default;labelBackgroundColor=default;" vertex="1" parent="1">
                    <mxGeometry x="195" y="435" width="10" height="10" as="geometry"/>
                </mxCell>
                <mxCell id="119" value="" style="endArrow=none;html=1;rounded=0;strokeColor=default;strokeWidth=1.1811;align=center;verticalAlign=middle;fontFamily=Helvetica;fontSize=11;fontColor=default;labelBackgroundColor=default;curved=0;entryX=0;entryY=0.5;entryDx=0;entryDy=0;entryPerimeter=0;exitX=1;exitY=0.5;exitDx=0;exitDy=0;" edge="1" parent="1" source="110" target="2">
                    <mxGeometry width="50" height="50" relative="1" as="geometry">
                        <mxPoint x="205" y="259.9999999999999" as="sourcePoint"/>
                        <mxPoint x="330" y="259.9999999999999" as="targetPoint"/>
                    </mxGeometry>
                </mxCell>
                <mxCell id="124" value="" style="ellipse;whiteSpace=wrap;html=1;aspect=fixed;fontFamily=Helvetica;fontSize=11;fontColor=default;labelBackgroundColor=default;" vertex="1" parent="1">
                    <mxGeometry x="1110" y="234.99999999999997" width="10" height="10" as="geometry"/>
                </mxCell>
                <mxCell id="127" value="" style="ellipse;whiteSpace=wrap;html=1;aspect=fixed;fontFamily=Helvetica;fontSize=11;fontColor=default;labelBackgroundColor=default;" vertex="1" parent="1">
                    <mxGeometry x="720" y="234.99999999999997" width="10" height="10" as="geometry"/>
                </mxCell>
                <mxCell id="129" value="" style="ellipse;whiteSpace=wrap;html=1;aspect=fixed;fontFamily=Helvetica;fontSize=11;fontColor=default;labelBackgroundColor=default;" vertex="1" parent="1">
                    <mxGeometry x="720" y="435" width="10" height="10" as="geometry"/>
                </mxCell>
                <mxCell id="133" value="" style="ellipse;whiteSpace=wrap;html=1;aspect=fixed;fontFamily=Helvetica;fontSize=11;fontColor=default;labelBackgroundColor=default;" vertex="1" parent="1">
                    <mxGeometry x="1110" y="435" width="10" height="10" as="geometry"/>
                </mxCell>
                <mxCell id="144" value="" style="group" vertex="1" connectable="0" parent="1">
                    <mxGeometry x="1230" y="240" width="20" height="200" as="geometry"/>
                </mxCell>
                <mxCell id="142" value="$$L_B$$" style="pointerEvents=1;verticalLabelPosition=middle;shadow=0;dashed=0;align=left;html=1;verticalAlign=middle;shape=mxgraph.electrical.inductors.inductor_3;direction=south;labelPosition=right;horizontal=1;fontSize=12;container=0;" vertex="1" parent="144">
                    <mxGeometry x="10" y="100" width="10" height="100" as="geometry"/>
                </mxCell>
                <mxCell id="143" value="&lt;span style=&quot;color: rgb(0, 0, 0);&quot;&gt;$$R_{B}$$&lt;/span&gt;" style="pointerEvents=1;verticalLabelPosition=middle;shadow=0;dashed=0;align=left;html=1;verticalAlign=middle;shape=mxgraph.electrical.resistors.resistor_1;rotation=0;horizontal=1;labelPosition=right;fontSize=12;direction=south;container=0;" vertex="1" parent="144">
                    <mxGeometry width="20" height="100" as="geometry"/>
                </mxCell>
                <mxCell id="145" value="" style="endArrow=none;html=1;rounded=0;strokeColor=default;strokeWidth=1.1811;align=center;verticalAlign=middle;fontFamily=Helvetica;fontSize=11;fontColor=default;labelBackgroundColor=default;curved=0;entryX=0;entryY=0.5;entryDx=0;entryDy=0;entryPerimeter=0;exitX=1;exitY=0.5;exitDx=0;exitDy=0;" edge="1" parent="1" source="124" target="143">
                    <mxGeometry width="50" height="50" relative="1" as="geometry">
                        <mxPoint x="1170" y="250" as="sourcePoint"/>
                        <mxPoint x="1220" y="200" as="targetPoint"/>
                    </mxGeometry>
                </mxCell>
                <mxCell id="146" value="" style="endArrow=none;html=1;rounded=0;strokeColor=default;strokeWidth=1.1811;align=center;verticalAlign=middle;fontFamily=Helvetica;fontSize=11;fontColor=default;labelBackgroundColor=default;curved=0;entryX=1;entryY=1;entryDx=0;entryDy=0;entryPerimeter=0;exitX=1;exitY=0.5;exitDx=0;exitDy=0;" edge="1" parent="1" source="133" target="142">
                    <mxGeometry width="50" height="50" relative="1" as="geometry">
                        <mxPoint x="1145" y="500" as="sourcePoint"/>
                        <mxPoint x="1195" y="450" as="targetPoint"/>
                    </mxGeometry>
                </mxCell>
                <mxCell id="147" value="" style="endArrow=block;html=1;entryX=0;entryY=0.5;entryDx=0;entryDy=0;entryPerimeter=0;endFill=1;flowAnimation=0;fillColor=#e51400;strokeColor=#B20000;shadow=0;exitX=1.109;exitY=0.53;exitDx=0;exitDy=0;exitPerimeter=0;strokeWidth=1.9685;startSize=5.9055;endSize=5.9055;rounded=0;align=center;verticalAlign=bottom;fontFamily=Helvetica;fontSize=11;fontColor=default;labelBackgroundColor=default;jumpStyle=sharp;startArrow=none;startFill=0;" edge="1" parent="1">
                    <mxGeometry width="50" height="50" relative="1" as="geometry">
                        <mxPoint x="780" y="230.07612903225757" as="sourcePoint"/>
                        <mxPoint x="858.74" y="230.37612903225752" as="targetPoint"/>
                    </mxGeometry>
                </mxCell>
                <mxCell id="148" value="$$\underline{I&#39;}_{P}$$" style="edgeLabel;html=1;align=center;verticalAlign=middle;resizable=0;points=[];fontFamily=Helvetica;fontSize=11;fontColor=default;labelBackgroundColor=default;rounded=0;sketch=1;jiggle=2;curveFitting=1;strokeColor=#001DBC;strokeWidth=1.9685;fillColor=#0050ef;" vertex="1" connectable="0" parent="147">
                    <mxGeometry relative="1" as="geometry">
                        <mxPoint as="offset"/>
                    </mxGeometry>
                </mxCell>
                <mxCell id="149" value="" style="endArrow=block;html=1;endFill=1;flowAnimation=0;fillColor=#e51400;strokeColor=#B20000;shadow=0;strokeWidth=1.9685;startSize=5.9055;endSize=5.9055;rounded=0;align=center;verticalAlign=bottom;fontFamily=Helvetica;fontSize=11;fontColor=default;labelBackgroundColor=default;jumpStyle=sharp;startArrow=none;startFill=0;" edge="1" parent="1">
                    <mxGeometry width="50" height="50" relative="1" as="geometry">
                        <mxPoint x="530" y="300.63" as="sourcePoint"/>
                        <mxPoint x="530" y="379.37" as="targetPoint"/>
                    </mxGeometry>
                </mxCell>
                <mxCell id="150" value="$$\underline{I}_{FE}$$" style="edgeLabel;html=1;align=center;verticalAlign=middle;resizable=0;points=[];fontFamily=Helvetica;fontSize=11;fontColor=default;labelBackgroundColor=default;rounded=0;sketch=1;jiggle=2;curveFitting=1;strokeColor=#001DBC;strokeWidth=1.9685;fillColor=#0050ef;" vertex="1" connectable="0" parent="149">
                    <mxGeometry relative="1" as="geometry">
                        <mxPoint as="offset"/>
                    </mxGeometry>
                </mxCell>
            </root>
        </mxGraphModel>
    </diagram>
</mxfile>